<svg viewBox="122.88 0 796.672 641.024" shape-rendering="geometricPrecision" xmlns="http://www.w3.org/2000/svg" style="max-height: 500px" width="796.672" height="641.024">
  <metadata>null</metadata>

<path fill-rule="evenodd" fill="rgb(196,32,42)" opacity="1" d="M 135.275 332.112&#10;C 174.553 299.074 213.198 265.203 252.129 231.74&#10;C 299.212 191.27 346.474 151.014 393.619 110.612&#10;C 410.345 96.278 426.835 81.579 443.839 67.58&#10;C 450.355 62.216 456.883 56.71 463.145 51.051&#10;C 469.977 44.878 477.143 39.054 484.124 33.052&#10;C 485.972 31.463 487.827 29.86 489.643 28.235&#10;C 490.445 27.517 491.566 26.153 492.604 25.912&#10;C 498.077 30.026 503.199 34.953 508.375 39.452&#10;C 516.577 46.581 525.006 53.463 533.25 60.544&#10;C 543.184 69.078 553.493 77.187 563.365 85.79&#10;C 583.689 103.501 604.221 121.013 624.825 138.395&#10;C 636.487 148.233 647.926 158.325 659.621 168.122&#10;C 662.835 170.814 665.939 173.644 669.166 176.316&#10;C 670.149 177.13 671.534 178.766 672.818 178.979&#10;C 672.407 172.891 672.845 166.615 672.828 160.507&#10;C 672.789 146.591 672.844 132.675 672.882 118.76&#10;C 695.113 118.515 717.36 118.493 739.6 118.415&#10;C 752.179 118.371 764.89 117.809 777.456 118.407&#10;C 777.224 128.261 777.49 138.148 777.464 148.007&#10;C 777.4 173.007 777.47 198.008 777.395 223.008&#10;C 777.364 233.508 777.398 244.008 777.393 254.508&#10;C 777.392 257.576 777.367 260.644 777.378 263.712&#10;C 777.383 265.129 777.142 267.03 777.629 268.361&#10;C 783.811 273.937 790.576 278.988 796.868 284.469&#10;C 808.307 294.433 819.652 304.512 831.11 314.45&#10;C 836.197 318.863 841.357 323.186 846.459 327.58&#10;C 847.852 328.78 849.188 330.204 850.67 331.284&#10;C 851.192 331.665 852.196 331.886 852.484 332.471&#10;C 851.597 332.756 850.547 332.327 849.623 332.34&#10;C 846.916 332.377 844.207 332.35 841.499 332.345&#10;C 832.665 332.326 823.832 332.2 814.997 332.222&#10;C 811.998 332.229 808.997 332.181 805.998 332.21&#10;C 804.572 332.224 802.607 332.558 801.258 332.021&#10;C 799.71 331.405 798.425 329.586 797.204 328.496&#10;C 794.114 325.735 791.167 322.839 788.151 319.999&#10;C 778.119 310.552 768.022 301.189 758.158 291.566&#10;C 735.848 269.803 713.272 248.219 690.391 227.062&#10;C 672.335 210.368 654.987 192.842 637.165 175.894&#10;C 626.201 165.467 615.409 154.855 604.391 144.474&#10;C 597.377 137.864 589.976 131.293 583.451 124.217&#10;C 582.036 124.575 580.333 127.406 579.263 128.462&#10;C 576.205 131.483 573.108 134.459 570.019 137.445&#10;C 568.78 138.644 567.187 140.789 565.552 141.374&#10;C 563.679 140.341 562.169 138.653 560.442 137.401&#10;C 554.773 133.293 549.444 128.597 544.173 123.994&#10;C 533.244 114.448 522.007 105.224 511.002 95.76&#10;C 506.357 91.766 501.62 87.832 496.867 83.967&#10;C 495.703 83.021 494.583 82.018 493.448 81.039&#10;C 492.98 80.635 492.7 80.091 492.052 80.176&#10;C 488.166 84.261 483.607 87.928 479.295 91.557&#10;C 464.811 104.698 449.626 117.186 434.653 129.767&#10;C 423.766 138.914 413.26 148.518 402.279 157.553&#10;C 395.044 163.776 387.885 170.101 380.544 176.206&#10;C 367.342 188.325 353.043 199.242 339.477 210.949&#10;C 318.935 228.677 298.499 246.523 277.797 264.064&#10;C 277.684 264.165 277.57 264.266 277.457 264.368&#10;C 276.189 265.493 274.882 266.572 273.618 267.7&#10;C 272.293 268.999 270.824 270.126 269.485 271.405&#10;C 262.033 278.438 253.905 284.802 246.126 291.465&#10;C 233.035 302.679 219.849 313.796 206.816 325.076&#10;C 205.069 326.614 203.27 328.101 201.484 329.594&#10;C 200.346 330.544 199.27 331.848 197.919 332.486&#10;C 192.779 333.325 186.989 332.425 181.778 332.421&#10;C 171.185 332.415 160.592 332.458 149.999 332.411&#10;C 146.287 332.395 142.573 332.397 138.861 332.359&#10;C 138.099 332.351 135.479 332.92 135.275 332.112 Z&#10;M 313.282 198.646&#10;C 316.651 200.521 320.644 199.735 323.28 203.206&#10;C 324.632 204.986 325.119 207.045 325.638 209.174&#10;C 325.836 209.988 325.863 211.76 326.523 212.283&#10;C 327.399 208.926 327.673 203.319 330.962 201.351&#10;C 332.99 200.137 335.962 199.445 338.308 199.239&#10;C 338.667 199.207 340.451 199.232 340.491 198.706&#10;C 337.359 196.529 331.743 198.354 329.6 194.555&#10;C 328.146 191.979 327.63 189.031 326.937 186.193&#10;C 326.862 185.883 326.322 183.634 326.15 183.652&#10;C 325.743 183.694 325.993 184.454 325.915 184.854&#10;C 325.41 188.655 325.196 194.224 321.314 196.175&#10;C 319.602 197.035 317.567 197.393 315.713 197.828&#10;C 314.927 198.012 313.812 197.969 313.282 198.646 Z&#10;M 696.64 142.168&#10;C 697.11 155.23 696.806 168.426 696.72 181.5&#10;C 696.694 185.5 696.661 189.499 696.673 193.5&#10;C 696.679 195.436 696.386 197.685 696.823 199.569&#10;C 698.028 200.961 699.867 202.054 701.319 203.194&#10;C 703.595 204.98 705.747 206.966 707.935 208.857&#10;C 715.291 215.213 722.468 221.781 729.795 228.167&#10;C 732.362 230.405 734.875 232.712 737.454 234.934&#10;C 737.965 235.375 739.539 237.282 740.188 237.219&#10;C 739.505 234.454 740.05 230.844 740.05 227.991&#10;C 740.05 221.775 739.993 215.561 739.943 209.346&#10;C 739.813 193.065 739.863 176.781 739.871 160.5&#10;C 739.874 154.329 740.256 148.064 740.067 141.911&#10;C 725.654 143.066 711.062 141.221 696.64 142.168 Z"/>
<path fill-rule="evenodd" fill="rgb(1,1,1)" opacity="1" d="M 226.233 332.645&#10;C 231.844 328.396 237.016 323.423 242.479 318.949&#10;C 257.62 306.55 272.14 293.395 287.033 280.706&#10;C 291.734 276.701 296.454 272.711 301.092 268.634&#10;C 303.912 266.157 306.751 263.162 309.9 261.129&#10;C 312.266 261.201 314.866 262.497 317.275 262.862&#10;C 322.565 263.663 328.786 264.237 333.785 266.177&#10;C 333.75 267.127 331.313 268.499 330.576 269.1&#10;C 327.306 271.764 324.005 274.388 320.744 277.061&#10;C 307.8 287.671 294.987 298.458 282.348 309.419&#10;C 282.018 315.906 282.41 322.513 282.404 329.012&#10;C 282.39 342.839 282.367 356.686 282.623 370.5&#10;C 283.464 415.974 282.597 461.522 282.741 507.004&#10;C 282.795 524.003 282.765 541.002 282.767 558.001&#10;C 282.768 563.667 282.771 569.334 282.776 575&#10;C 282.778 577.837 283.038 580.846 282.682 583.653&#10;C 283.358 583.952 284.352 583.679 285.093 583.677&#10;C 287.232 583.673 289.371 583.64 291.51 583.632&#10;C 299.175 583.604 306.839 583.54 314.504 583.519&#10;C 341.004 583.448 367.505 583.536 394.005 583.517&#10;C 402.011 583.511 410.062 583.138 418.059 583.481&#10;C 420.841 583.6 424.954 582.735 427.529 583.809&#10;C 427.392 592.264 432.607 600.77 437.851 606.972&#10;C 439.634 609.08 441.629 611.123 443.62 613.036&#10;C 444.012 613.412 445.706 614.727 445.564 615.212&#10;C 405.574 615.872 365.501 615.094 325.501 615.104&#10;C 309.001 615.108 292.501 615.102 276.001 615.082&#10;C 267.584 615.072 258.958 615.575 250.57 614.936&#10;C 249.911 607.257 250.462 599.216 250.462 591.494&#10;C 250.463 577.162 250.426 562.83 250.402 548.498&#10;C 250.324 503.001 250.343 457.503 250.332 412.006&#10;C 250.327 393.673 250.348 375.341 250.324 357.008&#10;C 250.316 351.508 250.294 346.008 250.301 340.508&#10;C 250.304 338.223 250.896 335.04 250.294 332.855&#10;C 244.696 332.871 239.096 332.753 233.498 332.834&#10;C 231.442 332.864 228.101 333.544 226.233 332.645 Z"/>
<path fill-rule="evenodd" fill="rgb(4,4,4)" opacity="1" d="M 317.348 309.512&#10;C 319.122 308.374 321.876 308.463 323.882 307.499&#10;C 327.045 305.981 327.676 302.366 328.398 299.284&#10;C 329.261 299.692 329.213 300.586 329.545 301.418&#10;C 330.256 303.203 330.983 304.91 332.38 306.278&#10;C 334.893 308.741 338.493 308.208 341.448 309.628&#10;C 341.403 309.908 339.547 310.057 339.229 310.155&#10;C 336.776 310.911 333.997 311.21 332.041 313.073&#10;C 330.407 314.63 330.257 316.925 329.802 319.003&#10;C 329.64 319.743 329.551 321.058 328.587 320.957&#10;C 327.175 317.753 327.854 314.12 324.486 311.902&#10;C 323.153 311.024 321.415 310.403 319.855 310.093&#10;C 318.973 309.918 318.123 310.016 317.348 309.512 Z"/>
<path fill-rule="evenodd" fill="rgb(2,2,3)" opacity="1" d="M 322.774 250.664&#10;C 333.176 242.613 343.114 233.822 353.101 225.242&#10;C 355.637 223.063 358.178 220.884 360.669 218.652&#10;C 361.942 217.511 363.443 215.941 364.969 215.179&#10;C 365.407 218.411 363.505 222.595 362.511 225.628&#10;C 360.813 230.811 359.69 237.194 355.653 241.193&#10;C 350.768 246.031 341.86 246.451 335.493 247.94&#10;C 332.47 248.646 329.494 249.644 326.451 250.24&#10;C 325.315 250.463 323.906 251.036 322.774 250.664 Z"/>
<path fill-rule="evenodd" fill="rgb(1,1,2)" opacity="1" d="M 326.949 257.436&#10;C 335.192 255.978 343.627 255.659 351.715 253.261&#10;C 355.566 252.119 359.338 250.668 362.298 247.86&#10;C 364.889 245.401 366.901 242.118 368.196 238.803&#10;C 370.562 232.748 371.851 226.03 372.725 219.605&#10;C 372.998 217.599 373.158 215.55 373.353 213.534&#10;C 373.408 212.971 373.439 211.491 373.753 211.055&#10;C 373.838 210.936 373.935 211.291 373.976 211.432&#10;C 374.085 211.8 374.112 212.188 374.197 212.562&#10;C 374.361 213.29 374.484 214.027 374.657 214.754&#10;C 375.195 217.019 375.646 219.314 376.079 221.601&#10;C 377.452 228.87 378.059 236.312 381.975 242.795&#10;C 387.381 251.742 397.68 255.154 407.603 256.517&#10;C 410.616 256.931 413.573 257.71 416.568 258.13&#10;C 418.337 258.378 420.386 258.133 422.001 258.97&#10;C 421.751 259.556 420.286 259.383 419.748 259.38&#10;C 417.126 259.369 414.698 259.97 412.105 260.211&#10;C 403.757 260.989 393.487 262.263 386.93 267.963&#10;C 379.644 274.297 377.262 284.842 375.915 293.983&#10;C 375.433 297.256 375.182 300.572 374.68 303.842&#10;C 374.535 304.784 374.666 306.656 373.975 307.339&#10;C 373.155 306.68 373.298 305.003 373.182 304.033&#10;C 372.868 301.398 372.406 298.742 372.006 296.11&#10;C 370.686 287.424 369.02 278.51 363.736 271.222&#10;C 356.973 261.893 344.533 261.164 334.277 258.815&#10;C 332.02 258.298 329.009 258.394 326.949 257.436 Z"/>
<path fill-rule="evenodd" fill="rgb(0,0,1)" opacity="1" d="M 380.234 202.506&#10;C 380.292 202.342 380.35 202.178 380.408 202.014&#10;C 387.736 195.22 395.808 189.156 403.43 182.693&#10;C 423.152 165.968 442.802 149.154 462.549 132.457&#10;C 468.985 127.015 475.324 121.339 481.93 116.104&#10;C 485.49 113.282 489.399 110.484 492.588 107.247&#10;C 493.529 107.176 494.927 109.17 495.706 109.792&#10;C 498.69 112.173 501.69 114.562 504.51 117.136&#10;C 515.284 126.972 527.062 135.911 538.21 145.329&#10;C 541.514 148.12 544.825 150.902 548.092 153.74&#10;C 548.614 154.194 551.113 155.803 550.868 156.34&#10;C 549.995 157.741 548.451 158.792 547.268 159.931&#10;C 545.089 162.029 542.959 164.183 540.821 166.323&#10;C 540.028 167.117 538.808 169.236 537.68 169.424&#10;C 532.974 165.597 528.544 161.338 523.991 157.322&#10;C 517.877 151.928 511.549 146.769 505.347 141.478&#10;C 501.371 138.085 497.608 134.23 493.462 131.064&#10;C 484.092 139.723 473.771 147.403 464.129 155.763&#10;C 445.612 171.82 426.753 187.519 407.938 203.219&#10;C 400.651 209.299 393.045 215.136 386.004 221.49&#10;C 385.583 221.879 384.745 222.906 384.159 222.792&#10;C 382.866 216.026 381.492 209.279 380.234 202.506 Z"/>
<path fill-rule="evenodd" fill="rgb(196,31,42)" opacity="1" d="M 424.329 280.339&#10;C 437.043 280.036 449.795 280.261 462.514 280.264&#10;C 469.543 280.265 477.041 279.537 484.02 280.369&#10;C 484.176 293.909 484.243 307.456 484.223 321.002&#10;C 484.217 325.502 484.21 330.002 484.225 334.501&#10;C 484.231 336.44 483.916 338.8 484.286 340.688&#10;C 473.742 340.17 463.066 340.59 452.508 340.584&#10;C 443.173 340.58 433.716 340.108 424.4 340.47&#10;C 423.748 339.953 424.177 337.644 424.178 336.821&#10;C 424.183 333.383 424.137 329.945 424.132 326.507&#10;C 424.113 315.505 424.12 304.502 424.085 293.5&#10;C 424.075 290.511 424.066 287.522 424.064 284.533&#10;C 424.063 283.266 423.738 281.465 424.329 280.339 Z"/>
<path fill-rule="evenodd" fill="rgb(195,30,43)" opacity="1" d="M 424.129 353.646&#10;C 428.488 353.108 433.112 353.558 437.505 353.556&#10;C 445.837 353.552 454.17 353.529 462.502 353.527&#10;C 467.576 353.526 472.65 353.376 477.723 353.413&#10;C 479.797 353.428 482.184 353.109 484.21 353.567&#10;C 484.639 368.183 484.213 382.877 484.242 397.503&#10;C 484.252 402.948 483.606 408.78 484.185 414.18&#10;C 478.183 413.38 471.568 414.17 465.505 414.142&#10;C 451.767 414.078 438.02 414.115 424.294 413.945&#10;C 423.151 393.896 425.137 373.7 424.129 353.646 Z"/>
<path fill-rule="evenodd" fill="rgb(5,7,6)" opacity="1" d="M 426.687 210.033&#10;C 429.264 208.26 433.243 209.528 435.099 206.396&#10;C 436.048 204.793 436.647 202.703 437.117 200.906&#10;C 437.192 200.619 437.702 197.988 437.854 198.013&#10;C 438.09 198.052 438.333 199.648 438.389 200.01&#10;C 438.703 202.063 439.299 204.769 440.684 206.378&#10;C 442.356 208.321 445.173 208.744 447.541 209.21&#10;C 448.245 209.349 450.181 209.48 450.326 210.415&#10;C 450.351 210.575 447.827 210.892 447.549 210.968&#10;C 445.705 211.473 443.389 211.95 441.821 213.069&#10;C 439.618 214.641 439.519 217.245 439.017 219.658&#10;C 438.845 220.484 438.966 221.83 438.315 222.41&#10;C 437.614 222.825 437.478 221.439 437.377 221.003&#10;C 436.908 218.979 436.541 216.958 435.543 215.105&#10;C 433.531 211.368 429.67 212.079 426.687 210.033 Z"/>
<path fill-rule="evenodd" fill="rgb(168,29,39)" opacity="1" d="M 574.872 450.285&#10;C 573.889 450.887 572.927 451.545 572.439 452.624&#10;C 572.938 453.675 573.938 454.459 574.654 455.358&#10;C 573.452 455.339 572.986 456.033 572.532 457.002&#10;C 571.736 456.454 571.1 455.721 570.089 455.574&#10;C 566.497 455.05 563.13 458.511 560.722 460.66&#10;C 552.382 468.103 544.694 476.38 536.725 484.216&#10;C 513.761 506.799 491.062 529.702 468.599 552.783&#10;C 463.732 557.783 458.703 562.655 453.668 567.485&#10;C 450.638 570.391 447.114 573.627 446.324 577.956&#10;C 445.314 583.49 447.621 588.435 449.237 593.604&#10;C 450.106 596.495 451.992 599.318 453.662 601.812&#10;C 455.12 603.988 456.739 606.187 458.876 607.749&#10;C 467.216 613.846 480.303 609.629 487.505 603.619&#10;C 490.843 600.834 493.427 597.566 496.866 594.873&#10;C 494.62 597.562 492.009 600.075 489.449 602.453&#10;C 483.895 607.612 478.973 611.982 470.969 612.564&#10;C 464.382 613.043 457.994 609.761 452.971 605.877&#10;C 443.377 598.458 436.32 587.113 439.362 574.642&#10;C 440.792 568.781 445.198 565.023 449.155 560.802&#10;C 456.576 552.887 464.551 545.467 472.195 537.769&#10;C 492.585 517.234 513.172 496.888 533.686 476.474&#10;C 540.032 470.159 546.307 463.773 552.715 457.52&#10;C 555.525 454.777 558.247 451.085 561.821 449.331&#10;C 564.509 448.012 568.085 447.577 570.991 448.433&#10;C 572.22 448.795 573.595 450.725 574.872 450.285 Z"/>
<path fill-rule="evenodd" fill="rgb(196,32,43)" opacity="1" d="M 449.237 593.604&#10;C 449.635 593.033 449.769 592.274 449.748 591.588&#10;C 449.363 586.713 450.952 578.897 455.173 575.812&#10;C 454.338 579.671 454.227 584.107 455.748 587.839&#10;C 456.893 590.653 458.39 592.941 460.663 594.987&#10;C 474.13 607.111 497.091 586.588 487.586 571.647&#10;C 486.439 569.845 484.814 568.365 483.086 567.137&#10;C 481.327 565.888 479.474 564.742 477.324 564.351&#10;C 474.039 563.754 470.625 563.673 467.348 564.307&#10;C 470.736 559.915 474.746 556.04 478.632 552.078&#10;C 485.051 545.535 491.458 538.999 497.975 532.554&#10;C 511.554 519.125 524.813 505.361 538.42 491.953&#10;C 546.161 484.324 553.825 476.601 561.474 468.879&#10;C 564.443 465.882 567.264 462.705 570.356 459.837&#10;C 571.063 459.182 573.5 457.649 572.532 457.002&#10;C 572.986 456.033 573.452 455.339 574.654 455.358&#10;C 579.693 459.441 583.892 464.558 588.402 469.19&#10;C 591.124 471.987 594.336 474.106 596.901 477.041&#10;C 601.778 487.432 590.397 493.933 584.895 500.759&#10;C 584.246 501.681 584.022 503.883 585.89 503.396&#10;C 583.648 506.089 581.005 508.468 578.58 510.994&#10;C 571.945 517.909 565.149 524.671 558.455 531.529&#10;C 550.053 540.135 542.026 549.565 532.964 557.474&#10;C 531.518 557.525 531.73 558.62 530.773 559.445&#10;C 530.171 559.964 529.37 560.176 528.777 560.723&#10;C 528.493 560.986 527.436 562.152 528.3 562.298&#10;C 527.194 563.485 526.011 564.612 524.911 565.819&#10;C 516.638 574.318 507.676 582.487 499.996 591.525&#10;C 499.05 592.7 498.009 593.886 496.866 594.873&#10;C 493.427 597.566 490.843 600.834 487.505 603.619&#10;C 480.303 609.629 467.216 613.846 458.876 607.749&#10;C 456.739 606.187 455.12 603.988 453.662 601.812&#10;C 451.992 599.318 450.106 596.495 449.237 593.604 Z"/>
<path fill-rule="evenodd" fill="rgb(4,1,1)" opacity="1" d="M 455.173 575.812&#10;C 457.485 571.024 462.885 566.922 467.348 564.307&#10;C 470.625 563.673 474.039 563.754 477.324 564.351&#10;C 479.474 564.742 481.327 565.888 483.086 567.137&#10;C 484.814 568.365 486.439 569.845 487.586 571.647&#10;C 497.091 586.588 474.13 607.111 460.663 594.987&#10;C 458.39 592.941 456.893 590.653 455.748 587.839&#10;C 454.227 584.107 454.338 579.671 455.173 575.812 Z&#10;M 462.43 580.59&#10;C 461.437 586.407 465.551 591.788 471.759 590.639&#10;C 476.743 589.717 481.191 585.388 482.115 580.375&#10;C 483.24 574.271 477.841 570.864 472.365 571.397&#10;C 467.627 571.858 463.237 575.861 462.43 580.59 Z"/>
<path fill-rule="evenodd" fill="rgb(1,1,1)" opacity="1" d="M 492.733 615.161&#10;C 499.455 608.077 506.524 601.259 513.494 594.383&#10;C 517.107 590.819 520.579 586.936 524.357 583.567&#10;C 529.321 583.012 534.509 583.609 539.507 583.484&#10;C 550.824 583.202 562.178 583.409 573.504 583.407&#10;C 607.338 583.403 641.171 583.363 675.005 583.372&#10;C 686.171 583.374 697.338 583.399 708.504 583.383&#10;C 713.655 583.376 719.007 583.786 724.133 583.412&#10;C 724.228 583.408 724.15 581.265 724.15 581.002&#10;C 724.146 578.504 724.128 576.005 724.117 573.507&#10;C 724.071 563.003 724.077 552.499 724.046 541.995&#10;C 723.96 512.498 724.035 482.998 724.079 453.5&#10;C 724.096 441.614 724.307 429.692 723.979 417.81&#10;C 723.876 414.058 724.156 410.248 723.85 406.508&#10;C 725.704 405.943 728.298 406.35 730.256 406.357&#10;C 733.007 406.368 735.753 406.399 738.504 406.345&#10;C 739.961 406.316 741.659 406.071 743.078 406.383&#10;C 745.754 409.01 748.305 411.768 750.981 414.399&#10;C 752.704 416.093 754.838 417.724 756.304 419.635&#10;C 756.997 424.721 756.323 430.359 756.325 435.502&#10;C 756.327 446.17 756.342 456.838 756.343 467.506&#10;C 756.347 500.504 756.327 533.502 756.287 566.501&#10;C 756.272 578.501 756.297 590.503 756.252 602.503&#10;C 756.24 605.627 756.21 608.751 756.207 611.875&#10;C 756.206 612.645 756.606 614.361 756.055 614.984&#10;C 748.742 614.604 741.329 614.926 734.005 614.93&#10;C 719.864 614.936 705.723 614.95 691.583 614.954&#10;C 648.89 614.967 606.196 615.005 563.503 615.078&#10;C 547.837 615.105 532.17 615.075 516.504 615.113&#10;C 511.169 615.126 505.834 615.084 500.5 615.109&#10;C 497.94 615.121 495.278 615.441 492.733 615.161 Z"/>
<path fill-rule="evenodd" fill="rgb(196,31,42)" opacity="1" d="M 497.374 280.965&#10;C 497.479 280.804 497.585 280.643 497.69 280.482&#10;C 502.731 279.944 507.947 280.3 513.013 280.279&#10;C 523.013 280.237 533.013 280.255 543.013 280.255&#10;C 546.68 280.255 550.347 280.28 554.014 280.3&#10;C 554.659 280.303 557.042 279.94 557.35 280.438&#10;C 557.939 293.567 557.385 306.859 557.37 320.003&#10;C 557.365 324.668 557.355 329.333 557.35 333.998&#10;C 557.348 336.116 557.753 338.632 557.388 340.703&#10;C 543.608 340.939 529.792 340.642 516.009 340.598&#10;C 509.825 340.579 503.509 340.227 497.342 340.68&#10;C 498.108 334.124 497.426 327.099 497.415 320.498&#10;C 497.392 307.321 497.308 294.141 497.374 280.965 Z"/>
<path fill-rule="evenodd" fill="rgb(195,31,43)" opacity="1" d="M 497.446 353.819&#10;C 498.826 353.376 500.61 353.615 502.053 353.614&#10;C 505.203 353.612 508.351 353.533 511.5 353.515&#10;C 522.001 353.453 532.501 353.421 543.003 353.41&#10;C 546.504 353.407 550.005 353.443 553.506 353.426&#10;C 554.331 353.422 556.754 352.957 557.347 353.491&#10;C 557.857 363.606 557.322 373.87 557.335 384&#10;C 557.347 394.022 557.891 404.213 557.352 414.217&#10;C 542.738 414.063 528.12 414.067 513.505 414.085&#10;C 509.671 414.089 505.837 414.035 502.003 414.073&#10;C 500.875 414.084 498.458 414.589 497.558 413.906&#10;C 497.765 406.499 497.41 399.072 497.409 391.688&#10;C 497.407 379.065 497.466 366.44 497.446 353.819 Z"/>
<path fill-rule="evenodd" fill="rgb(148,31,63)" opacity="1" d="M 532.964 557.474&#10;C 531.561 559.15 529.923 560.832 528.3 562.298&#10;C 527.436 562.152 528.493 560.986 528.777 560.723&#10;C 529.37 560.176 530.171 559.964 530.773 559.445&#10;C 531.73 558.62 531.518 557.525 532.964 557.474 Z"/>
<path fill-rule="evenodd" fill="rgb(2,1,1)" opacity="1" d="M 598.544 475.454&#10;C 598.414 476.044 597.422 476.718 596.901 477.041&#10;C 594.336 474.106 591.124 471.987 588.402 469.19&#10;C 583.892 464.558 579.693 459.441 574.654 455.358&#10;C 573.938 454.459 572.938 453.675 572.439 452.624&#10;C 572.927 451.545 573.889 450.887 574.872 450.285&#10;C 577.448 448.505 579.599 446.064 581.78 443.841&#10;C 584.903 440.657 588.075 437.519 591.221 434.357&#10;C 601.497 424.031 611.824 413.75 622.166 403.491&#10;C 630.16 395.561 640.256 387.654 644.005 376.697&#10;C 647.733 365.801 647.732 353.382 647.804 342.005&#10;C 647.875 330.942 647.551 319.652 648.426 308.622&#10;C 648.62 306.182 649.227 303.853 649.501 301.45&#10;C 649.009 300.544 648.017 299.878 647.283 299.17&#10;C 645.415 297.371 643.484 295.638 641.617 293.836&#10;C 635.012 287.46 628.427 281.035 621.686 274.803&#10;C 601.537 256.177 581.979 236.887 562.082 217.992&#10;C 554.842 211.117 547.549 204.294 540.358 197.366&#10;C 538.51 195.585 536.606 193.863 534.743 192.098&#10;C 534.163 191.548 532.743 190.554 532.624 189.803&#10;C 542.585 180.189 552.022 170.025 561.838 160.245&#10;C 563.752 158.338 565.96 156.765 567.946 154.941&#10;C 573.225 150.093 578.433 145.139 583.651 140.236&#10;C 584.225 140.226 584.729 141.048 585.109 141.466&#10;C 586.197 142.66 587.241 143.88 588.361 145.046&#10;C 592.951 149.822 597.781 154.365 602.572 158.937&#10;C 621.866 177.353 641.404 195.509 660.632 214.004&#10;C 679.998 232.632 699.675 250.936 719.04 269.567&#10;C 742.228 291.875 765.216 314.393 788.668 336.421&#10;C 803.411 350.269 817.548 364.811 832.09 378.876&#10;C 848.689 394.932 865.285 410.983 881.893 427.03&#10;C 887.256 432.212 892.591 437.447 898.047 442.532&#10;C 900.018 444.369 901.966 446.227 903.854 448.148&#10;C 904.54 448.845 905.59 449.502 906.067 450.347&#10;C 905.365 451.92 903.869 452.923 902.741 454.177&#10;C 899.878 457.356 896.895 460.402 893.97 463.523&#10;C 893.005 464.553 889.986 466.66 889.782 467.956&#10;C 890.316 468.41 891.55 469.377 891.706 470.051&#10;C 891.266 471.149 889.815 471.974 888.972 472.781&#10;C 886.899 474.766 884.868 476.795 882.804 478.789&#10;C 877.31 484.095 871.833 489.451 866.522 494.939&#10;C 864.095 497.448 861.469 501.126 858.471 502.894&#10;C 857.482 502.509 856.54 501.235 855.781 500.494&#10;C 853.916 498.672 852.041 496.863 850.185 495.032&#10;C 843.672 488.61 837.054 482.295 830.468 475.948&#10;C 811.704 457.864 792.882 439.853 774.078 421.806&#10;C 768.117 416.085 762.138 410.379 756.246 404.586&#10;C 753.321 401.71 750.468 398.073 747.072 395.761&#10;C 743.83 395.406 740.778 396.474 737.578 396.669&#10;C 732.91 396.953 728.172 396.654 723.495 396.708&#10;C 711.868 396.841 700.023 396.219 688.464 397.572&#10;C 681.739 398.36 674.998 399.062 668.952 402.402&#10;C 662.175 406.145 656.973 412.755 651.623 418.217&#10;C 642.718 427.307 633.479 436.082 624.794 445.383&#10;C 618.766 451.838 612.24 457.847 606.067 464.165&#10;C 603.276 467.022 599.613 469.901 597.863 473.552&#10;C 597.727 474.252 598.317 474.805 598.544 475.454 Z&#10;M 875.286 473.384&#10;C 876.479 472.484 879.177 470.43 879.788 469.084&#10;C 875.263 463.967 870.104 459.316 865.202 454.551&#10;C 856.929 446.511 848.722 438.405 840.334 430.488&#10;C 821.99 413.173 804.125 395.29 785.987 377.755&#10;C 741.143 334.401 696.506 290.799 651.112 248.021&#10;C 633.575 231.496 616.326 214.665 598.9 198.02&#10;C 588.275 187.872 577.245 178.027 566.928 167.573&#10;C 565.231 168.076 564.233 169.903 563.151 171.176&#10;C 562.711 171.694 562.024 172.205 561.911 172.872&#10;C 560.307 173.005 558.17 176.003 557.043 177.144&#10;C 553.242 180.992 549.463 185.004 545.489 188.653&#10;C 545.716 189.414 547.058 190.499 547.668 191.091&#10;C 549.629 192.993 551.548 194.939 553.474 196.877&#10;C 560.788 204.232 568.62 211.099 576.079 218.311&#10;C 595.162 236.762 614.404 255.055 633.593 273.398&#10;C 639.741 279.275 646.015 285.017 652.126 290.934&#10;C 654.539 293.27 657.435 295.508 659.589 298.05&#10;C 660.171 300.053 659.143 302.839 658.568 304.785&#10;C 658.331 305.589 657.756 306.57 658.019 307.413&#10;C 662.906 313.272 668.759 318.058 674.188 323.387&#10;C 686.438 335.412 698.91 347.202 711.3 359.082&#10;C 717.997 365.504 724.664 371.954 731.373 378.362&#10;C 734.167 381.032 736.783 384.906 740.047 386.962&#10;C 742.991 387.062 746.066 384.569 748.904 384.973&#10;C 756.286 391.553 763.107 398.834 770.299 405.635&#10;C 787.961 422.337 805.635 439.046 823.095 455.95&#10;C 830.848 463.457 838.857 470.734 846.502 478.346&#10;C 849.535 481.367 852.54 484.413 855.778 487.218&#10;C 856.81 488.113 857.738 489.429 858.972 490.036&#10;C 860.701 489.069 862.442 486.676 863.877 485.241&#10;C 867.749 481.367 871.634 477.458 875.286 473.384 Z&#10;M 574.945 162.042&#10;C 574.805 162.202 574.666 162.363 574.526 162.523&#10;C 577.316 164.438 579.755 167.497 582.18 169.874&#10;C 587.306 174.897 592.484 179.891 597.74 184.778&#10;C 616.808 202.507 635.516 220.67 654.172 238.837&#10;C 664.947 249.329 676.099 259.439 686.951 269.85&#10;C 723.207 304.63 759.861 339.06 795.592 374.379&#10;C 814.775 393.34 834.595 411.65 853.742 430.649&#10;C 860.559 437.414 867.526 444.033 874.416 450.724&#10;C 877.783 453.993 880.88 457.999 884.554 460.898&#10;C 887.103 458.852 889.357 456.384 891.686 454.095&#10;C 892.192 453.598 894.138 452.089 893.729 451.402&#10;C 887.101 444.609 880.03 438.198 873.236 431.565&#10;C 852.683 411.498 831.951 391.618 811.377 371.572&#10;C 785.547 346.405 759.69 321.29 733.689 296.294&#10;C 721.602 284.674 709.708 272.81 697.324 261.512&#10;C 670.039 236.622 643.887 210.423 616.989 185.103&#10;C 609.299 177.864 601.763 170.469 594.156 163.145&#10;C 590.649 159.768 587.341 155.906 583.489 152.926&#10;C 580.564 155.826 577.394 158.697 574.945 162.042 Z&#10;M 584.485 454.506&#10;C 584.313 454.697 584.141 454.889 583.969 455.08&#10;C 586.345 457.18 588.542 459.528 590.89 461.675&#10;C 591.562 462.289 592.469 463.54 593.408 463.604&#10;C 599.074 458.584 604.11 452.615 609.425 447.21&#10;C 619.775 436.686 630.18 426.212 640.584 415.741&#10;C 647.792 408.486 654.79 400.017 663.592 394.661&#10;C 669.849 390.854 677.204 389.401 684.38 388.507&#10;C 692.9 387.445 701.354 387.122 709.941 387.038&#10;C 715.521 386.983 721.958 386.042 727.447 387.166&#10;C 727.457 387.151 725.11 385.018 724.892 384.8&#10;C 722.314 382.228 719.773 379.621 717.17 377.072&#10;C 706.248 366.38 695.332 355.689 684.155 345.28&#10;C 678.104 339.646 672.044 333.981 666.201 328.131&#10;C 664.264 326.192 662.285 324.287 660.419 322.278&#10;C 659.772 321.581 659.082 320.929 658.445 320.225&#10;C 658.087 319.829 657.606 318.552 657.376 319.033&#10;C 657.161 319.486 657.492 320.029 657.541 320.528&#10;C 657.704 322.177 657.723 323.851 657.756 325.508&#10;C 657.87 331.258 658.029 337.013 657.957 342.765&#10;C 657.711 362.555 655.489 384.05 640.683 398.584&#10;C 635.714 404.006 630.388 409.001 625.181 414.179&#10;C 616.189 423.121 607.315 432.187 598.271 441.079&#10;C 593.74 445.534 588.722 449.785 584.485 454.506 Z"/>
<path fill-rule="evenodd" fill="rgb(194,30,42)" opacity="1" d="M 561.911 172.872&#10;C 637.453 244.958 712.48 317.678 788.03 389.79&#10;C 808.911 409.721 829.712 429.753 850.425 449.866&#10;C 856.236 455.508 862.07 461.133 867.933 466.721&#10;C 869.741 468.444 871.489 470.377 873.474 471.894&#10;C 874.001 472.296 874.676 473.192 875.286 473.384&#10;C 871.634 477.458 867.749 481.367 863.877 485.241&#10;C 862.442 486.676 860.701 489.069 858.972 490.036&#10;C 857.738 489.429 856.81 488.113 855.778 487.218&#10;C 852.54 484.413 849.535 481.367 846.502 478.346&#10;C 838.857 470.734 830.848 463.457 823.095 455.95&#10;C 805.635 439.046 787.961 422.337 770.299 405.635&#10;C 763.107 398.834 756.286 391.553 748.904 384.973&#10;C 746.066 384.569 742.991 387.062 740.047 386.962&#10;C 736.783 384.906 734.167 381.032 731.373 378.362&#10;C 724.664 371.954 717.997 365.504 711.3 359.082&#10;C 698.91 347.202 686.438 335.412 674.188 323.387&#10;C 668.759 318.058 662.906 313.272 658.019 307.413&#10;C 657.756 306.57 658.331 305.589 658.568 304.785&#10;C 659.143 302.839 660.171 300.053 659.589 298.05&#10;C 657.435 295.508 654.539 293.27 652.126 290.934&#10;C 646.015 285.017 639.741 279.275 633.593 273.398&#10;C 614.404 255.055 595.162 236.762 576.079 218.311&#10;C 568.62 211.099 560.788 204.232 553.474 196.877&#10;C 551.548 194.939 549.629 192.993 547.668 191.091&#10;C 547.058 190.499 545.716 189.414 545.489 188.653&#10;C 549.463 185.004 553.242 180.992 557.043 177.144&#10;C 558.17 176.003 560.307 173.005 561.911 172.872 Z"/>
<path fill-rule="evenodd" fill="rgb(157,12,39)" opacity="1" d="M 596.901 477.041&#10;C 597.422 476.718 598.414 476.044 598.544 475.454&#10;C 601.45 478.597 599.958 485.729 598.321 489.086&#10;C 596.606 492.174 594.195 494.67 591.705 497.137&#10;C 589.76 499.218 587.956 501.431 585.89 503.396&#10;C 584.022 503.883 584.246 501.681 584.895 500.759&#10;C 590.397 493.933 601.778 487.432 596.901 477.041 Z"/>

</svg>